# xmcd
#
# Track frame offsets:
#	150
#	16955
#	28554
#	41826
#	52691
#	62016
#	70532
#	86438
#	92470
#	110668
#	127350
#	141310
#	150856
#	168175
#
# Disc length: 2400 seconds
#
# Revision: 1
# Processed by: cddbd v1.5.2PL0 Copyright (c) Steve Scherf et al.
# Submitted via: audiograbber 1.83.01
#
DISCID=ab095e0e
DTITLE=Various Country Artists - Country Christmas
DYEAR=2008
DGENRE=Country
TTITLE0=Dolly Parton - Winter Wonderland and Sleigh Ride
TTITLE1=Johnny Cash - Little Drummer Boy
TTITLE2=Jim Reeves - Silver Bells
TTITLE3=Willie Nelson - Away In A Manger
TTITLE4=Lynn Anderson - Rockin' Around The Christmas Tree
TTITLE5=George Jones - Joy To The World
TTITLE6=Mary Chapin Carpenter - Bells Are Ringing
TTITLE7=Marty Robbins - Christmas Time Is Here Again
TTITLE8=Charlie Daniels Band - Christmas Love Song To You
TTITLE9=Alabama - Tennessee Christmas
TTITLE10=Ricky Van Shelton - I'll Be Home For Christmas
TTITLE11=Charley Pride - Christmas In My Home Town
TTITLE12=Ronnie Milsap - O Holy Night
TTITLE13=Chet Atkins - Let It Snow, Let It Snow, Let It Snow
EXTD=Sony BMG Music Entertainment (Netherlands) BV\n88697302202
EXTT0=
EXTT1=
EXTT2=
EXTT3=
EXTT4=
EXTT5=
EXTT6=
EXTT7=
EXTT8=
EXTT9=
EXTT10=
EXTT11=
EXTT12=
EXTT13=
PLAYORDER=
